<?xml version="1.0" encoding="UTF-8" standalone="no"?>
<!-- Created with Inkscape (http://www.inkscape.org/) -->

<svg
   xmlns:dc="http://purl.org/dc/elements/1.1/"
   xmlns:cc="http://creativecommons.org/ns#"
   xmlns:rdf="http://www.w3.org/1999/02/22-rdf-syntax-ns#"
   xmlns:svg="http://www.w3.org/2000/svg"
   xmlns="http://www.w3.org/2000/svg"
   xmlns:sodipodi="http://sodipodi.sourceforge.net/DTD/sodipodi-0.dtd"
   xmlns:inkscape="http://www.inkscape.org/namespaces/inkscape"
   width="571"
   height="571"
   id="svg2"
   version="1.1"
   inkscape:version="0.48.4 r9939"
   sodipodi:docname="nomeolvides.svg">
  <defs
     id="defs4" />
  <sodipodi:namedview
     id="base"
     pagecolor="#ffffff"
     bordercolor="#666666"
     borderopacity="1.0"
     inkscape:pageopacity="0.0"
     inkscape:pageshadow="2"
     inkscape:zoom="1"
     inkscape:cx="529.06309"
     inkscape:cy="364.24183"
     inkscape:document-units="px"
     inkscape:current-layer="layer1"
     showgrid="false"
     inkscape:window-width="1600"
     inkscape:window-height="1141"
     inkscape:window-x="0"
     inkscape:window-y="27"
     inkscape:window-maximized="1" />
  <metadata
     id="metadata7">
    <rdf:RDF>
      <cc:Work
         rdf:about="">
        <dc:format>image/svg+xml</dc:format>
        <dc:type
           rdf:resource="http://purl.org/dc/dcmitype/StillImage" />
        <dc:title />
      </cc:Work>
    </rdf:RDF>
  </metadata>
  <g
     inkscape:label="Capa 1"
     inkscape:groupmode="layer"
     id="layer1"
     transform="translate(0,-481.36217)">
    <g
       id="g3035"
       style="fill:#007fff"
       transform="matrix(0.92143298,0,0,0.88741605,-72.502449,335.53309)">
      <path
         transform="matrix(0.73267238,-0.6805815,0.6805815,0.73267238,-237.64633,204.63549)"
         d="m 400.00002,483.79074 c 0,108.87899 -54.36543,197.14285 -121.42858,197.14285 -67.06315,0 -121.42857,-88.26386 -121.42857,-197.14285 0,-108.87899 54.36542,-197.14285 121.42857,-197.14285 67.06315,0 121.42858,88.26386 121.42858,197.14285 z"
         sodipodi:ry="197.14285"
         sodipodi:rx="121.42857"
         sodipodi:cy="483.79074"
         sodipodi:cx="278.57144"
         id="path2987"
         style="fill:#007fff;fill-rule:evenodd;stroke:#000000;stroke-width:1px;stroke-linecap:butt;stroke-linejoin:miter;stroke-opacity:0"
         sodipodi:type="arc" />
      <path
         transform="matrix(0.43853776,0.89871276,-0.89871276,0.43853776,578.33911,69.845969)"
         d="m 400.00002,483.79074 c 0,108.87899 -54.36543,197.14285 -121.42858,197.14285 -67.06315,0 -121.42857,-88.26386 -121.42857,-197.14285 0,-108.87899 54.36542,-197.14285 121.42857,-197.14285 67.06315,0 121.42858,88.26386 121.42858,197.14285 z"
         sodipodi:ry="197.14285"
         sodipodi:rx="121.42857"
         sodipodi:cy="483.79074"
         sodipodi:cx="278.57144"
         id="path2987-8"
         style="fill:#007fff;fill-rule:evenodd;stroke:#000000;stroke-width:1px;stroke-linecap:butt;stroke-linejoin:miter;stroke-opacity:0"
         sodipodi:type="arc" />
      <path
         transform="matrix(0.9100954,0.41439879,-0.41439879,0.9100954,418.38427,-203.37321)"
         d="m 400.00002,483.79074 c 0,108.87899 -54.36543,197.14285 -121.42858,197.14285 -67.06315,0 -121.42857,-88.26386 -121.42857,-197.14285 0,-108.87899 54.36542,-197.14285 121.42857,-197.14285 67.06315,0 121.42858,88.26386 121.42858,197.14285 z"
         sodipodi:ry="197.14285"
         sodipodi:rx="121.42857"
         sodipodi:cy="483.79074"
         sodipodi:cx="278.57144"
         id="path2987-82"
         style="fill:#007fff;fill-rule:evenodd;stroke:#000000;stroke-width:1px;stroke-linecap:butt;stroke-linejoin:miter;stroke-opacity:0"
         sodipodi:type="arc" />
      <path
         transform="matrix(0.99979103,-0.0204423,0.0204423,0.99979103,88.73983,131.51005)"
         d="m 400.00002,483.79074 c 0,108.87899 -54.36543,197.14285 -121.42858,197.14285 -67.06315,0 -121.42857,-88.26386 -121.42857,-197.14285 0,-108.87899 54.36542,-197.14285 121.42857,-197.14285 67.06315,0 121.42858,88.26386 121.42858,197.14285 z"
         sodipodi:ry="197.14285"
         sodipodi:rx="121.42857"
         sodipodi:cy="483.79074"
         sodipodi:cx="278.57144"
         id="path2987-4"
         style="fill:#007fff;fill-rule:evenodd;stroke:#000000;stroke-width:1px;stroke-linecap:butt;stroke-linejoin:miter;stroke-opacity:0"
         sodipodi:type="arc" />
      <path
         transform="matrix(0.41734332,-0.90874889,0.90874889,0.41734332,-44.475658,583.60683)"
         d="m 400.00002,483.79074 c 0,108.87899 -54.36543,197.14285 -121.42858,197.14285 -67.06315,0 -121.42857,-88.26386 -121.42857,-197.14285 0,-108.87899 54.36542,-197.14285 121.42857,-197.14285 67.06315,0 121.42858,88.26386 121.42858,197.14285 z"
         sodipodi:ry="197.14285"
         sodipodi:rx="121.42857"
         sodipodi:cy="483.79074"
         sodipodi:cx="278.57144"
         id="path2987-40"
         style="fill:#007fff;fill-rule:evenodd;stroke:#000000;stroke-width:1px;stroke-linecap:butt;stroke-linejoin:miter;stroke-opacity:0"
         sodipodi:type="arc" />
    </g>
  </g>
  <g
     inkscape:groupmode="layer"
     id="layer2"
     inkscape:label="Capa"
     transform="translate(0,-481.36217)">
    <path
       sodipodi:type="arc"
       style="fill:#ffcc00;fill-rule:evenodd;stroke:#000000;stroke-width:1px;stroke-linecap:butt;stroke-linejoin:miter;stroke-opacity:1"
       id="path3043"
       sodipodi:cx="305.71429"
       sodipodi:cy="420.93362"
       sodipodi:rx="102.85714"
       sodipodi:ry="108.57143"
       d="m 408.57143,420.93362 a 102.85714,108.57143 0 1 1 -205.71428,0 102.85714,108.57143 0 1 1 205.71428,0 z"
       transform="matrix(0.65590533,0,0,0.65590533,75.500284,486.44425)" />
  </g>
</svg>
